<mxfile host="app.diagrams.net" modified="2022-04-09T14:38:33.540Z" agent="5.0 (Windows NT 10.0; Win64; x64) AppleWebKit/537.36 (KHTML, like Gecko) Chrome/100.0.4896.75 Safari/537.36" etag="ptWNXGX2ZdyjDkrG34lt" version="17.4.1" type="github">
  <diagram id="q-eJTMsC0od4PJGGT1NP" name="Page-1">
    <mxGraphModel dx="862" dy="425" grid="1" gridSize="10" guides="1" tooltips="1" connect="1" arrows="1" fold="1" page="1" pageScale="1" pageWidth="850" pageHeight="1100" math="0" shadow="0">
      <root>
        <mxCell id="0" />
        <mxCell id="1" parent="0" />
        <mxCell id="PIKunvGV3G2S35egPZdo-1" value="Mahasiswa" style="swimlane;startSize=23;" vertex="1" parent="1">
          <mxGeometry x="100" y="30" width="415" height="840" as="geometry" />
        </mxCell>
        <mxCell id="PIKunvGV3G2S35egPZdo-3" value="" style="ellipse;html=1;shape=startState;fillColor=#000000;strokeColor=#ff0000;" vertex="1" parent="PIKunvGV3G2S35egPZdo-1">
          <mxGeometry x="190" y="40" width="30" height="30" as="geometry" />
        </mxCell>
        <mxCell id="PIKunvGV3G2S35egPZdo-4" value="" style="edgeStyle=orthogonalEdgeStyle;html=1;verticalAlign=bottom;endArrow=open;endSize=8;strokeColor=#ff0000;rounded=0;" edge="1" source="PIKunvGV3G2S35egPZdo-3" parent="PIKunvGV3G2S35egPZdo-1">
          <mxGeometry relative="1" as="geometry">
            <mxPoint x="205" y="130" as="targetPoint" />
          </mxGeometry>
        </mxCell>
        <mxCell id="PIKunvGV3G2S35egPZdo-5" value="Menu Utama" style="rounded=1;whiteSpace=wrap;html=1;arcSize=40;fontColor=#000000;fillColor=#ffffc0;strokeColor=#ff0000;" vertex="1" parent="PIKunvGV3G2S35egPZdo-1">
          <mxGeometry x="145" y="130" width="120" height="40" as="geometry" />
        </mxCell>
        <mxCell id="PIKunvGV3G2S35egPZdo-6" value="" style="edgeStyle=orthogonalEdgeStyle;html=1;verticalAlign=bottom;endArrow=open;endSize=8;strokeColor=#ff0000;rounded=0;" edge="1" source="PIKunvGV3G2S35egPZdo-5" parent="PIKunvGV3G2S35egPZdo-1">
          <mxGeometry relative="1" as="geometry">
            <mxPoint x="205" y="230" as="targetPoint" />
          </mxGeometry>
        </mxCell>
        <mxCell id="PIKunvGV3G2S35egPZdo-7" value="" style="rhombus;whiteSpace=wrap;html=1;fillColor=#ffffc0;strokeColor=#ff0000;" vertex="1" parent="PIKunvGV3G2S35egPZdo-1">
          <mxGeometry x="164" y="230" width="80" height="40" as="geometry" />
        </mxCell>
        <mxCell id="PIKunvGV3G2S35egPZdo-10" value="" style="shape=line;html=1;strokeWidth=6;strokeColor=#ff0000;" vertex="1" parent="PIKunvGV3G2S35egPZdo-1">
          <mxGeometry x="104" y="300" width="200" height="10" as="geometry" />
        </mxCell>
        <mxCell id="PIKunvGV3G2S35egPZdo-9" value="" style="edgeStyle=orthogonalEdgeStyle;html=1;align=left;verticalAlign=top;endArrow=open;endSize=8;strokeColor=#ff0000;rounded=0;" edge="1" source="PIKunvGV3G2S35egPZdo-7" parent="PIKunvGV3G2S35egPZdo-1" target="PIKunvGV3G2S35egPZdo-10">
          <mxGeometry x="-1" relative="1" as="geometry">
            <mxPoint x="204" y="300" as="targetPoint" />
          </mxGeometry>
        </mxCell>
        <mxCell id="PIKunvGV3G2S35egPZdo-11" value="Home" style="rounded=1;whiteSpace=wrap;html=1;arcSize=40;fontColor=#000000;fillColor=#ffffc0;strokeColor=#ff0000;" vertex="1" parent="PIKunvGV3G2S35egPZdo-1">
          <mxGeometry x="10" y="340" width="90" height="20" as="geometry" />
        </mxCell>
        <mxCell id="PIKunvGV3G2S35egPZdo-37" value="" style="edgeStyle=orthogonalEdgeStyle;rounded=0;orthogonalLoop=1;jettySize=auto;html=1;endArrow=open;endFill=0;" edge="1" parent="PIKunvGV3G2S35egPZdo-1" source="PIKunvGV3G2S35egPZdo-19" target="PIKunvGV3G2S35egPZdo-23">
          <mxGeometry relative="1" as="geometry" />
        </mxCell>
        <mxCell id="PIKunvGV3G2S35egPZdo-19" value="Informasi" style="rounded=1;whiteSpace=wrap;html=1;arcSize=40;fontColor=#000000;fillColor=#ffffc0;strokeColor=#ff0000;" vertex="1" parent="PIKunvGV3G2S35egPZdo-1">
          <mxGeometry x="110" y="340" width="90" height="20" as="geometry" />
        </mxCell>
        <mxCell id="PIKunvGV3G2S35egPZdo-20" value="Login" style="rounded=1;whiteSpace=wrap;html=1;arcSize=40;fontColor=#000000;fillColor=#ffffc0;strokeColor=#ff0000;" vertex="1" parent="PIKunvGV3G2S35egPZdo-1">
          <mxGeometry x="210" y="340" width="90" height="20" as="geometry" />
        </mxCell>
        <mxCell id="PIKunvGV3G2S35egPZdo-21" value="Regis" style="rounded=1;whiteSpace=wrap;html=1;arcSize=40;fontColor=#000000;fillColor=#ffffc0;strokeColor=#ff0000;" vertex="1" parent="PIKunvGV3G2S35egPZdo-1">
          <mxGeometry x="304" y="340" width="90" height="20" as="geometry" />
        </mxCell>
        <mxCell id="PIKunvGV3G2S35egPZdo-23" value="Lihat&lt;br&gt;Informasi" style="rounded=1;whiteSpace=wrap;html=1;arcSize=40;fontColor=#000000;fillColor=#ffffc0;strokeColor=#ff0000;" vertex="1" parent="PIKunvGV3G2S35egPZdo-1">
          <mxGeometry x="110" y="380" width="90" height="30" as="geometry" />
        </mxCell>
        <mxCell id="PIKunvGV3G2S35egPZdo-24" value="" style="rhombus;whiteSpace=wrap;html=1;fillColor=#ffffc0;strokeColor=#ff0000;" vertex="1" parent="PIKunvGV3G2S35egPZdo-1">
          <mxGeometry x="215" y="390" width="80" height="40" as="geometry" />
        </mxCell>
        <mxCell id="PIKunvGV3G2S35egPZdo-25" value="" style="rhombus;whiteSpace=wrap;html=1;fillColor=#ffffc0;strokeColor=#ff0000;" vertex="1" parent="PIKunvGV3G2S35egPZdo-1">
          <mxGeometry x="325" y="390" width="80" height="40" as="geometry" />
        </mxCell>
        <mxCell id="PIKunvGV3G2S35egPZdo-26" value="menunggu&lt;br&gt;validasi" style="rounded=1;whiteSpace=wrap;html=1;arcSize=40;fontColor=#000000;fillColor=#ffffc0;strokeColor=#ff0000;" vertex="1" parent="PIKunvGV3G2S35egPZdo-1">
          <mxGeometry x="320" y="470" width="90" height="30" as="geometry" />
        </mxCell>
        <mxCell id="PIKunvGV3G2S35egPZdo-27" value="" style="shape=line;html=1;strokeWidth=6;strokeColor=#ff0000;" vertex="1" parent="PIKunvGV3G2S35egPZdo-1">
          <mxGeometry x="200" y="540" width="200" height="10" as="geometry" />
        </mxCell>
        <mxCell id="PIKunvGV3G2S35egPZdo-30" value="" style="endArrow=open;endFill=1;endSize=12;html=1;rounded=0;exitX=0;exitY=0.5;exitDx=0;exitDy=0;exitPerimeter=0;entryX=0.444;entryY=0;entryDx=0;entryDy=0;entryPerimeter=0;" edge="1" parent="PIKunvGV3G2S35egPZdo-1" source="PIKunvGV3G2S35egPZdo-10" target="PIKunvGV3G2S35egPZdo-11">
          <mxGeometry width="160" relative="1" as="geometry">
            <mxPoint x="240" y="380" as="sourcePoint" />
            <mxPoint x="400" y="380" as="targetPoint" />
          </mxGeometry>
        </mxCell>
        <mxCell id="PIKunvGV3G2S35egPZdo-31" value="" style="endArrow=open;endFill=1;endSize=12;html=1;rounded=0;entryX=0.5;entryY=0;entryDx=0;entryDy=0;exitX=0.25;exitY=0.5;exitDx=0;exitDy=0;exitPerimeter=0;" edge="1" parent="PIKunvGV3G2S35egPZdo-1" source="PIKunvGV3G2S35egPZdo-10" target="PIKunvGV3G2S35egPZdo-19">
          <mxGeometry width="160" relative="1" as="geometry">
            <mxPoint x="155" y="310" as="sourcePoint" />
            <mxPoint x="400" y="380" as="targetPoint" />
          </mxGeometry>
        </mxCell>
        <mxCell id="PIKunvGV3G2S35egPZdo-32" value="" style="endArrow=open;endFill=1;endSize=12;html=1;rounded=0;exitX=0.721;exitY=0.243;exitDx=0;exitDy=0;exitPerimeter=0;" edge="1" parent="PIKunvGV3G2S35egPZdo-1" source="PIKunvGV3G2S35egPZdo-10" target="PIKunvGV3G2S35egPZdo-20">
          <mxGeometry width="160" relative="1" as="geometry">
            <mxPoint x="250" y="310" as="sourcePoint" />
            <mxPoint x="400" y="380" as="targetPoint" />
          </mxGeometry>
        </mxCell>
        <mxCell id="PIKunvGV3G2S35egPZdo-35" value="" style="endArrow=open;endFill=1;endSize=12;html=1;rounded=0;exitX=0.5;exitY=1;exitDx=0;exitDy=0;entryX=0.5;entryY=0;entryDx=0;entryDy=0;" edge="1" parent="PIKunvGV3G2S35egPZdo-1" source="PIKunvGV3G2S35egPZdo-21" target="PIKunvGV3G2S35egPZdo-25">
          <mxGeometry width="160" relative="1" as="geometry">
            <mxPoint x="240" y="450" as="sourcePoint" />
            <mxPoint x="400" y="450" as="targetPoint" />
          </mxGeometry>
        </mxCell>
        <mxCell id="PIKunvGV3G2S35egPZdo-36" value="" style="endArrow=open;endFill=1;endSize=12;html=1;rounded=0;exitX=0.5;exitY=1;exitDx=0;exitDy=0;" edge="1" parent="PIKunvGV3G2S35egPZdo-1" source="PIKunvGV3G2S35egPZdo-20" target="PIKunvGV3G2S35egPZdo-24">
          <mxGeometry width="160" relative="1" as="geometry">
            <mxPoint x="240" y="450" as="sourcePoint" />
            <mxPoint x="400" y="450" as="targetPoint" />
          </mxGeometry>
        </mxCell>
        <mxCell id="PIKunvGV3G2S35egPZdo-38" value="" style="endArrow=open;endFill=1;endSize=12;html=1;rounded=0;entryX=0.373;entryY=1.05;entryDx=0;entryDy=0;entryPerimeter=0;exitX=1;exitY=0.5;exitDx=0;exitDy=0;" edge="1" parent="PIKunvGV3G2S35egPZdo-1" source="PIKunvGV3G2S35egPZdo-24" target="PIKunvGV3G2S35egPZdo-21">
          <mxGeometry width="160" relative="1" as="geometry">
            <mxPoint x="240" y="450" as="sourcePoint" />
            <mxPoint x="400" y="450" as="targetPoint" />
          </mxGeometry>
        </mxCell>
        <mxCell id="PIKunvGV3G2S35egPZdo-39" value="" style="endArrow=open;endFill=1;endSize=12;html=1;rounded=0;entryX=0.568;entryY=-0.133;entryDx=0;entryDy=0;entryPerimeter=0;exitX=0.5;exitY=1;exitDx=0;exitDy=0;" edge="1" parent="PIKunvGV3G2S35egPZdo-1" source="PIKunvGV3G2S35egPZdo-25" target="PIKunvGV3G2S35egPZdo-26">
          <mxGeometry width="160" relative="1" as="geometry">
            <mxPoint x="240" y="450" as="sourcePoint" />
            <mxPoint x="400" y="450" as="targetPoint" />
          </mxGeometry>
        </mxCell>
        <mxCell id="PIKunvGV3G2S35egPZdo-40" value="" style="endArrow=open;endFill=1;endSize=12;html=1;rounded=0;exitX=0.5;exitY=1;exitDx=0;exitDy=0;" edge="1" parent="PIKunvGV3G2S35egPZdo-1" source="PIKunvGV3G2S35egPZdo-26" target="PIKunvGV3G2S35egPZdo-27">
          <mxGeometry width="160" relative="1" as="geometry">
            <mxPoint x="240" y="450" as="sourcePoint" />
            <mxPoint x="400" y="450" as="targetPoint" />
          </mxGeometry>
        </mxCell>
        <mxCell id="PIKunvGV3G2S35egPZdo-41" value="" style="endArrow=open;endFill=1;endSize=12;html=1;rounded=0;exitX=0.5;exitY=1;exitDx=0;exitDy=0;" edge="1" parent="PIKunvGV3G2S35egPZdo-1" source="PIKunvGV3G2S35egPZdo-24" target="PIKunvGV3G2S35egPZdo-27">
          <mxGeometry width="160" relative="1" as="geometry">
            <mxPoint x="240" y="450" as="sourcePoint" />
            <mxPoint x="400" y="450" as="targetPoint" />
          </mxGeometry>
        </mxCell>
        <mxCell id="PIKunvGV3G2S35egPZdo-44" value="lihat&lt;br&gt;info regis" style="rounded=1;whiteSpace=wrap;html=1;arcSize=40;fontColor=#000000;fillColor=#ffffc0;strokeColor=#ff0000;" vertex="1" parent="PIKunvGV3G2S35egPZdo-1">
          <mxGeometry x="255" y="580" width="90" height="30" as="geometry" />
        </mxCell>
        <mxCell id="PIKunvGV3G2S35egPZdo-45" value="" style="rhombus;whiteSpace=wrap;html=1;fillColor=#ffffc0;strokeColor=#ff0000;" vertex="1" parent="PIKunvGV3G2S35egPZdo-1">
          <mxGeometry x="260" y="640" width="80" height="40" as="geometry" />
        </mxCell>
        <mxCell id="PIKunvGV3G2S35egPZdo-46" value="" style="shape=line;html=1;strokeWidth=6;strokeColor=#ff0000;" vertex="1" parent="PIKunvGV3G2S35egPZdo-1">
          <mxGeometry x="107.5" y="720" width="200" height="10" as="geometry" />
        </mxCell>
        <mxCell id="PIKunvGV3G2S35egPZdo-47" value="" style="endArrow=open;endFill=1;endSize=12;html=1;rounded=0;exitX=0.5;exitY=1;exitDx=0;exitDy=0;" edge="1" parent="PIKunvGV3G2S35egPZdo-1" source="PIKunvGV3G2S35egPZdo-11" target="PIKunvGV3G2S35egPZdo-46">
          <mxGeometry width="160" relative="1" as="geometry">
            <mxPoint x="240" y="550" as="sourcePoint" />
            <mxPoint x="400" y="550" as="targetPoint" />
          </mxGeometry>
        </mxCell>
        <mxCell id="PIKunvGV3G2S35egPZdo-49" value="" style="endArrow=open;endFill=1;endSize=12;html=1;rounded=0;entryX=0.5;entryY=0;entryDx=0;entryDy=0;exitX=0.5;exitY=1;exitDx=0;exitDy=0;" edge="1" parent="PIKunvGV3G2S35egPZdo-1" source="PIKunvGV3G2S35egPZdo-44" target="PIKunvGV3G2S35egPZdo-45">
          <mxGeometry width="160" relative="1" as="geometry">
            <mxPoint x="240" y="550" as="sourcePoint" />
            <mxPoint x="400" y="550" as="targetPoint" />
          </mxGeometry>
        </mxCell>
        <mxCell id="PIKunvGV3G2S35egPZdo-54" value="" style="ellipse;html=1;shape=endState;fillColor=#000000;strokeColor=#ff0000;" vertex="1" parent="PIKunvGV3G2S35egPZdo-1">
          <mxGeometry x="192.5" y="790" width="30" height="30" as="geometry" />
        </mxCell>
        <mxCell id="PIKunvGV3G2S35egPZdo-55" value="" style="endArrow=open;endFill=1;endSize=12;html=1;rounded=0;entryX=0.5;entryY=0;entryDx=0;entryDy=0;" edge="1" parent="PIKunvGV3G2S35egPZdo-1" source="PIKunvGV3G2S35egPZdo-46" target="PIKunvGV3G2S35egPZdo-54">
          <mxGeometry width="160" relative="1" as="geometry">
            <mxPoint x="240" y="650" as="sourcePoint" />
            <mxPoint x="400" y="650" as="targetPoint" />
          </mxGeometry>
        </mxCell>
        <mxCell id="PIKunvGV3G2S35egPZdo-2" value="Pihak Kampus" style="swimlane;" vertex="1" parent="1">
          <mxGeometry x="515" y="30" width="220" height="840" as="geometry" />
        </mxCell>
        <mxCell id="PIKunvGV3G2S35egPZdo-42" value="validasi data" style="rounded=1;whiteSpace=wrap;html=1;arcSize=40;fontColor=#000000;fillColor=#ffffc0;strokeColor=#ff0000;" vertex="1" parent="PIKunvGV3G2S35egPZdo-2">
          <mxGeometry x="95" y="400" width="90" height="20" as="geometry" />
        </mxCell>
        <mxCell id="PIKunvGV3G2S35egPZdo-56" value="" style="endArrow=open;endFill=1;endSize=12;html=1;rounded=0;" edge="1" parent="PIKunvGV3G2S35egPZdo-2">
          <mxGeometry width="160" relative="1" as="geometry">
            <mxPoint x="-15" y="410" as="sourcePoint" />
            <mxPoint x="95" y="410" as="targetPoint" />
          </mxGeometry>
        </mxCell>
        <mxCell id="PIKunvGV3G2S35egPZdo-33" value="" style="endArrow=open;endFill=1;endSize=12;html=1;rounded=0;exitX=1;exitY=0.5;exitDx=0;exitDy=0;exitPerimeter=0;" edge="1" parent="1" source="PIKunvGV3G2S35egPZdo-10">
          <mxGeometry width="160" relative="1" as="geometry">
            <mxPoint x="340" y="410" as="sourcePoint" />
            <mxPoint x="450" y="370" as="targetPoint" />
          </mxGeometry>
        </mxCell>
        <mxCell id="PIKunvGV3G2S35egPZdo-48" value="" style="endArrow=open;endFill=1;endSize=12;html=1;rounded=0;exitX=0.5;exitY=1;exitDx=0;exitDy=0;" edge="1" parent="1" source="PIKunvGV3G2S35egPZdo-23">
          <mxGeometry width="160" relative="1" as="geometry">
            <mxPoint x="340" y="580" as="sourcePoint" />
            <mxPoint x="320" y="740" as="targetPoint" />
          </mxGeometry>
        </mxCell>
        <mxCell id="PIKunvGV3G2S35egPZdo-50" value="" style="endArrow=open;endFill=1;endSize=12;html=1;rounded=0;entryX=0.5;entryY=0;entryDx=0;entryDy=0;" edge="1" parent="1" target="PIKunvGV3G2S35egPZdo-44">
          <mxGeometry width="160" relative="1" as="geometry">
            <mxPoint x="400" y="580" as="sourcePoint" />
            <mxPoint x="500" y="580" as="targetPoint" />
          </mxGeometry>
        </mxCell>
        <mxCell id="PIKunvGV3G2S35egPZdo-51" value="" style="endArrow=open;endFill=1;endSize=12;html=1;rounded=0;exitX=0.5;exitY=1;exitDx=0;exitDy=0;" edge="1" parent="1" source="PIKunvGV3G2S35egPZdo-45">
          <mxGeometry width="160" relative="1" as="geometry">
            <mxPoint x="340" y="680" as="sourcePoint" />
            <mxPoint x="330" y="740" as="targetPoint" />
          </mxGeometry>
        </mxCell>
        <mxCell id="PIKunvGV3G2S35egPZdo-57" value="" style="endArrow=open;endFill=1;endSize=12;html=1;rounded=0;exitX=0.5;exitY=1;exitDx=0;exitDy=0;entryX=1;entryY=0.5;entryDx=0;entryDy=0;" edge="1" parent="1" source="PIKunvGV3G2S35egPZdo-42" target="PIKunvGV3G2S35egPZdo-44">
          <mxGeometry width="160" relative="1" as="geometry">
            <mxPoint x="340" y="580" as="sourcePoint" />
            <mxPoint x="500" y="580" as="targetPoint" />
            <Array as="points">
              <mxPoint x="655" y="620" />
            </Array>
          </mxGeometry>
        </mxCell>
      </root>
    </mxGraphModel>
  </diagram>
</mxfile>
